<svg id="图层_1" data-name="图层 1" xmlns="http://www.w3.org/2000/svg" viewBox="0 0 40 40">
    <defs>
        <style>
        .cls-1{
            fill:#fff;
            fill-opacity:0;
        }
        .cls-2{
            fill:#2578ff;
        }
        @keyframes leaf1{ 
            0% { 
                fill: rgba(37,120,255,0);
            }  
            33% { 
                fill: rgba(37,120,255,0);
            } 
            34% { 
                fill: rgba(37,120,255,1);
            } 
            100% {
                fill: rgba(37,120,255,1);
            } 
        }
        @keyframes leaf2{ 
            0% { 
                fill: rgba(37,120,255,0);
            }  
            66% { 
                fill: rgba(37,120,255,0);
            } 
            67% { 
                fill: rgba(37,120,255,1);
            } 
            100% {
                fill: rgba(37,120,255,1);
            } 
        }
        #Oval-121-Copy-8{ 
            animation: leaf1 1s linear infinite;
        }
        #Oval-121-Copy-7{ 
            animation: leaf2 1s linear infinite;
        }
        </style>
    </defs>
    <title>tts（播放中）备份</title>
    <g id="民汉翻译-3期_v3.2_" data-name="民汉翻译-3期（v3.2）">
        <g id="切图">
            <g id="_2_功能级_1_基础操作_72px_音量备份" data-name="2_功能级/1_基础操作/72px/音量备份">
                <rect id="Path" class="cls-1" width="40" height="40"/>
                <path id="Rectangle-566-Copy-2" class="cls-2" d="M20.56,9.59,12.65,16H4.44v8.89h8.21l7.91,6.4Zm-8.89,3.63,9.94-8c.95-.77,1.72-.4,1.72.83V34.88c0,1.23-.77,1.6-1.72.83l-9.94-8H3.89a2.21,2.21,0,0,1-2.22-2.22v-10a2.21,2.21,0,0,1,2.22-2.22Z"/>
                <path id="Oval-121-Copy-7" d="M30.71,34.51a1.39,1.39,0,0,1-1.64-2.24c4.14-3,6.86-7.71,6.86-12.38s-2.63-9-6.85-12A1.39,1.39,0,0,1,30.71,5.6c4.9,3.55,8,8.73,8,14.29S35.52,31,30.71,34.51Z"/>
                <path id="Oval-121-Copy-8" d="M28,27.05a1.39,1.39,0,1,1-1.67-2.21,6.25,6.25,0,0,0,2.58-5.07c0-2-.85-3.47-2.64-5a1.39,1.39,0,0,1,1.79-2.13c2.37,2,3.63,4.19,3.63,7.11A9,9,0,0,1,28,27.05Z"/>
            </g>
        </g>
    </g>
</svg>